<?xml version="1.0" encoding="UTF-8" standalone="no"?>
<svg width="218px" height="40px" viewBox="0 0 218 40" version="1.1" xmlns="http://www.w3.org/2000/svg" xmlns:xlink="http://www.w3.org/1999/xlink" xmlns:sketch="http://www.bohemiancoding.com/sketch/ns">
    <!-- Generator: Sketch 3.2.2 (9983) - http://www.bohemiancoding.com/sketch -->
    <title>title</title>
    <desc>Created with Sketch.</desc>
    <defs></defs>
    <g id="Page-1" stroke="none" stroke-width="1" fill="none" fill-rule="evenodd" sketch:type="MSPage">
        <g id="title" sketch:type="MSArtboardGroup" fill="#000000">
            <path d="M7.44,12.984 L7.44,33 L11.436,33 L11.436,12.984 L18.24,12.984 L18.24,8.988 L0.636,8.988 L0.636,12.984 L7.44,12.984 Z M27.456,17.808 L27.456,8.988 L23.46,8.988 L23.46,33 L27.456,33 L27.456,21.804 L35.448,21.804 L35.448,33 L39.48,33 L39.48,8.988 L35.448,8.988 L35.448,17.808 L27.456,17.808 Z M47.472,33 L59.46,33 L59.46,29.004 L51.468,29.004 L51.468,21.804 L59.46,21.804 L59.46,17.808 L51.468,17.808 L51.468,12.984 L59.46,12.984 L59.46,8.988 L47.472,8.988 L47.472,33 Z M91.464,21.012 L83.472,21.012 L83.472,17.808 C83.472,14.28 85.272,12.588 87.468,12.588 C89.664,12.588 91.464,14.28 91.464,17.808 L91.464,21.012 Z M83.472,25.008 L91.464,25.008 L91.464,33 L95.496,33 L95.496,17.808 C95.496,11.868 91.896,8.592 87.468,8.592 C83.076,8.592 79.476,11.868 79.476,17.808 L79.476,33 L83.472,33 L83.472,25.008 Z M114.72,24.108 C117.348,22.812 119.076,20.076 119.076,17.016 C119.076,12.588 115.476,8.988 111.084,8.988 L103.488,8.988 L103.488,33 L107.484,33 L107.484,25.008 L110.436,25.008 L116.196,33 L121.092,33 L114.72,24.108 Z M111.084,21.012 L107.484,21.012 L107.484,12.984 L111.084,12.984 C113.28,12.984 115.08,14.784 115.08,17.016 C115.08,19.212 113.28,21.012 111.084,21.012 L111.084,21.012 Z M131.496,12.984 L131.496,33 L135.492,33 L135.492,12.984 L142.296,12.984 L142.296,8.988 L124.692,8.988 L124.692,12.984 L131.496,12.984 Z M151.512,8.988 L147.516,8.988 L147.516,33 L159.504,33 L159.504,29.004 L151.512,29.004 L151.512,8.988 Z M167.496,29.004 L163.5,29.004 L163.5,33 L175.488,33 L175.488,29.004 L171.492,29.004 L171.492,12.984 L175.488,12.984 L175.488,8.988 L163.5,8.988 L163.5,12.984 L167.496,12.984 L167.496,29.004 Z M197.484,25.872 C197.484,18.492 186.108,19.572 186.108,15.288 C186.108,13.848 187.584,12.552 189.996,12.552 C191.904,12.552 193.92,13.524 195.612,14.64 L196.872,11.472 C194.388,9.528 192.552,8.592 189.852,8.592 C185.604,8.592 181.932,11.472 181.932,15.648 C181.932,23.676 193.272,21.912 193.272,26.484 C193.272,28.428 190.968,29.4 189.168,29.4 C187.116,29.4 185.136,28.572 182.724,27.276 L182.256,30.84 C184.488,32.568 186.432,33.396 189.024,33.396 C193.344,33.396 197.484,30.804 197.484,25.872 L197.484,25.872 Z M207.528,12.984 L207.528,33 L211.524,33 L211.524,12.984 L218.328,12.984 L218.328,8.988 L200.724,8.988 L200.724,12.984 L207.528,12.984 Z" id="THE-ARTLIST" sketch:type="MSShapeGroup"></path>
        </g>
    </g>
</svg>